<?xml version="1.0" standalone="no"?>
<svg xmlns="http://www.w3.org/2000/svg" viewBox="0 0 209.76000000000002 115.8" width="209.76000000000002" height="115.8"><rect fill="none" stroke="#ead017" stroke-width="4" width="205.76000000000002" height="111.8" x="2" y="2"></rect><g fill="#000000" color="#000000" transform="translate(79.881 12) scale(0.9920635)"><svg width="50.4" height="50.4" x="0.0" y="0.0" viewBox="0 0 50.4 50.4"><g><rect x="0.166" y="31.438" width="3.515" height="3.518"></rect><rect x="5.93" y="31.438" width="3.515" height="3.518"></rect><rect x="11.834" y="31.438" width="3.516" height="3.518"></rect><rect x="17.599" y="31.438" width="3.514" height="3.518"></rect><rect x="23.502" y="31.438" width="3.515" height="3.518"></rect><rect x="29.267" y="31.438" width="3.515" height="3.518"></rect><rect x="35.17" y="31.438" width="3.517" height="3.518"></rect><rect x="40.937" y="31.438" width="3.515" height="3.518"></rect><rect x="0.166" y="37.269" width="3.515" height="3.514"></rect><rect x="5.93" y="37.269" width="3.515" height="3.514"></rect><rect x="11.834" y="37.269" width="3.516" height="3.514"></rect><rect x="17.599" y="37.269" width="3.514" height="3.514"></rect><rect x="23.502" y="37.269" width="3.515" height="3.514"></rect><rect x="29.267" y="37.269" width="3.515" height="3.514"></rect><rect x="35.17" y="37.269" width="3.517" height="3.514"></rect><rect x="40.937" y="37.269" width="3.515" height="3.514"></rect><rect x="0.166" y="43.154" width="3.515" height="3.514"></rect><rect x="5.93" y="43.154" width="3.515" height="3.514"></rect><rect x="11.834" y="43.154" width="26.853" height="3.514"></rect><rect x="40.937" y="43.154" width="3.515" height="3.514"></rect><rect x="46.887" y="31.438" width="3.514" height="3.518"></rect><rect x="46.887" y="37.269" width="3.514" height="3.514"></rect><rect x="46.887" y="43.154" width="3.514" height="3.514"></rect><rect x="6" y="4.032" width="38.521" height="24.06"></rect></g></svg></g><path fill="#000000" fill-rule="nonzero" d="M7.36 12.96L7.36 12.96Q8.52 14.12 10.14 14.12Q11.76 14.12 12.76 13.12L12.76 13.12Q14.36 11.48 14.36 8.24L14.36 8.24Q14.36 2.28 9.08 2.28L9.08 2.28Q7.40 2.28 5.32 3.16L5.32 3.16Q5.04 6.32 5.04 13.00Q5.04 19.68 5.40 23.88L5.40 23.88L7.68 24.04Q7.76 24.68 7.76 25.20Q7.76 25.72 7.64 26.24L7.64 26.24Q6.20 26.20 3.90 26.20Q1.60 26.20 0.36 26.24L0.36 26.24Q0.24 25.64 0.24 25.18Q0.24 24.72 0.32 24L0.32 24L1.72 23.88Q2.04 19.60 2.04 12.94Q2.04 6.28 1.64 3.04L1.64 3.04L0.12 2.92Q0 2.36 0 1.68Q0 1 0.04 0.68L0.04 0.68Q1.72 0.60 4.64 0.32L4.64 0.32Q6.68 0 9.12 0L9.12 0Q13.84 0 15.84 2.14Q17.84 4.28 17.84 8.14Q17.84 12.00 15.82 14.40Q13.80 16.80 9.68 16.80L9.68 16.80Q8.08 16.80 6.52 16.20L6.52 16.20Q6.52 15.12 6.80 14.20Q7.08 13.28 7.36 12.96ZM28.60 12.24L28.60 12.24Q29.76 13.32 31.54 13.32Q33.32 13.32 34.46 11.82Q35.60 10.32 35.60 7.84L35.60 7.84Q35.60 2.28 30.32 2.28L30.32 2.28Q28.52 2.28 26.56 3.08L26.56 3.08Q26.28 6.56 26.28 12.96Q26.28 19.36 26.64 23.88L26.64 23.88L28.12 24Q28.20 24.88 28.20 25.22Q28.20 25.56 28.08 26.24L28.08 26.24Q26.92 26.20 24.68 26.20Q22.44 26.20 21.60 26.24L21.60 26.24Q21.48 25.64 21.48 25.10Q21.48 24.56 21.56 24L21.56 24L22.96 23.88Q23.28 19.48 23.28 12.84Q23.28 6.20 22.88 3.04L22.88 3.04L21.36 2.92Q21.24 2.44 21.24 1.68Q21.24 0.92 21.28 0.68L21.28 0.68Q23.96 0.60 26 0.30Q28.04 0 30.36 0L30.36 0Q39.08 0 39.08 7.84L39.08 7.84Q39.08 11.00 37.52 13.04Q35.96 15.08 33.16 15.60L33.16 15.60Q37.12 21.88 38.64 23.68L38.64 23.68L40.52 23.80Q40.60 24.44 40.60 24.98Q40.60 25.52 40.48 26.12L40.48 26.12Q36.84 26.24 35.40 26.32L35.40 26.32L35.24 25.88Q34.56 24.20 33.58 22.38Q32.60 20.56 29.48 15.68L29.48 15.68Q28.64 15.64 27.76 15.24L27.76 15.24Q27.76 14.44 28.02 13.50Q28.28 12.56 28.60 12.24ZM43.40 13.12L43.40 13.12Q43.40 0 53.22 0Q63.04 0 63.04 13.12L63.04 13.12Q63.04 15.52 62.86 17.32Q62.68 19.12 62.06 21Q61.44 22.88 60.40 24.08Q59.36 25.28 57.54 26.04Q55.72 26.80 53.22 26.80Q50.72 26.80 48.90 26.04Q47.08 25.28 46.04 24.08Q45 22.88 44.38 21Q43.76 19.12 43.58 17.32Q43.40 15.52 43.40 13.12ZM49.84 22.96L49.84 22.96Q51.20 23.84 53.22 23.84Q55.24 23.84 56.62 22.96Q58 22.08 58.68 20.44L58.68 20.44Q59.88 17.60 59.88 13.16L59.88 13.16Q59.88 2.36 53.22 2.36Q46.56 2.36 46.56 13.16L46.56 13.16Q46.56 20.88 49.84 22.96ZM68.60 18.40Q69.84 18.40 70.52 19.16Q71.20 19.92 71.20 21.02Q71.20 22.12 70.84 22.80L70.84 22.80Q72.60 24.24 74.90 24.24Q77.20 24.24 78.36 23.18Q79.52 22.12 79.52 20.28Q79.52 18.44 78.24 17.12Q76.96 15.80 75.14 14.92Q73.32 14.04 71.52 13.06Q69.72 12.08 68.44 10.44Q67.16 8.80 67.16 6.56L67.16 6.56Q67.16 3.48 69.20 1.74Q71.24 0 74.44 0Q77.64 0 79.98 1.52Q82.32 3.04 82.32 5.62Q82.32 8.20 80.24 8.20L80.24 8.20Q79.00 8.20 78.32 7.44Q77.64 6.68 77.64 5.48Q77.64 4.28 78.12 3.64L78.12 3.64Q76.72 2.36 74.68 2.36Q72.64 2.36 71.62 3.40Q70.60 4.44 70.60 6Q70.60 7.56 71.52 8.66Q72.44 9.76 73.80 10.46Q75.16 11.16 76.76 12.06Q78.36 12.96 79.72 13.84Q81.08 14.72 82.00 16.22Q82.92 17.72 82.92 19.64L82.92 19.64Q82.92 22.80 80.74 24.80Q78.56 26.80 75.16 26.80Q71.76 26.80 69.14 25.22Q66.52 23.64 66.52 20.80L66.52 20.80Q66.52 18.40 68.60 18.40L68.60 18.40ZM95.72 3.24L95.72 3.24Q95.44 6.36 95.44 13.26Q95.44 20.16 95.76 23.88L95.76 23.88L98.08 24.12Q98.16 24.76 98.16 25.14Q98.16 25.52 98.04 26.24L98.04 26.24Q96.60 26.20 93.90 26.20Q91.20 26.20 89.96 26.24L89.96 26.24Q89.84 25.64 89.84 25.24Q89.84 24.84 89.92 24.12L89.92 24.12L92.12 23.88Q92.44 19.60 92.44 13.02Q92.44 6.44 92.08 3.24L92.08 3.24Q90.52 3.28 87.76 3.52L87.76 3.52L87.64 6.48Q87.00 6.60 86.44 6.60Q85.88 6.60 85.40 6.56L85.40 6.56Q85.28 3.28 85.04 0.48L85.04 0.48L85.24 0.28Q88.20 0.64 94.72 0.64Q101.24 0.64 102.88 0.28L102.88 0.28L103.08 0.48Q102.80 3.56 102.72 6.16L102.72 6.16Q102.24 6.20 101.70 6.20Q101.16 6.20 100.48 6.08L100.48 6.08L100.36 3.40Q98.68 3.32 95.72 3.24ZM108.24 2.92Q108.12 2.44 108.12 1.68Q108.12 0.92 108.16 0.68L108.16 0.68Q111.68 0.24 113.40 0.24Q115.12 0.24 116.32 0.64L116.32 0.64Q117.28 8.16 123.00 23.88L123.00 23.88L124.48 24Q124.56 24.88 124.56 25.22Q124.56 25.56 124.44 26.24L124.44 26.24Q123.32 26.20 120.96 26.20Q118.60 26.20 117.68 26.24L117.68 26.24Q117.56 25.64 117.56 25.10Q117.56 24.56 117.64 24L117.64 24L119.04 23.88Q118.84 22.92 118.40 21.10Q117.96 19.28 117.92 19.08L117.92 19.08Q115.64 18.96 112.98 18.96Q110.32 18.96 108.00 19.12L108.00 19.12L106.88 23.88L108.40 24Q108.48 24.88 108.48 25.22Q108.48 25.56 108.36 26.24L108.36 26.24Q107.40 26.20 105.22 26.20Q103.04 26.20 102.16 26.24L102.16 26.24Q102.04 25.64 102.04 25.10Q102.04 24.56 102.12 24L102.12 24L103.52 23.88Q108.32 10.72 109.84 3.04L109.84 3.04L108.24 2.92ZM108.72 16.32L108.72 16.32Q110.08 16.36 112.80 16.36Q115.52 16.36 117.20 16.24L117.20 16.24Q115.32 9.12 113.24 3.08L113.24 3.08L113.00 3.08Q110.64 8.80 108.72 16.32ZM144.72 24.16L144.72 24.16Q141.16 26.80 136.32 26.80Q131.48 26.80 129.10 23.52Q126.72 20.24 126.72 13.48L126.72 13.48Q126.72 0 136.76 0L136.76 0Q139.56 0 141.52 1.10Q143.48 2.20 144.32 4.24L144.32 4.24Q144.56 4.96 144.56 5.80L144.56 5.80Q144.56 8.20 142.48 8.20L142.48 8.20Q141.24 8.20 140.56 7.44Q139.88 6.68 139.88 5.48Q139.88 4.28 140.36 3.60L140.36 3.60Q139.08 2.36 136.76 2.36L136.76 2.36Q133.44 2.36 131.72 5.10Q130 7.84 130 13.16L130 13.16Q130 23.84 136.64 23.84L136.64 23.84Q139.88 23.84 142.12 22L142.12 22Q142.08 18.80 141.84 16.52L141.84 16.52Q137.04 16.68 135.40 16.96L135.40 16.96Q135.20 15.88 135.20 14.88Q135.20 13.88 135.24 13.52L135.24 13.52Q137.28 13.84 140.36 13.84Q143.44 13.84 145.12 13.72L145.12 13.72Q144.72 17.96 144.72 24.16ZM161.96 11.48L162.08 9.96Q162.96 9.88 163.28 9.88Q163.60 9.88 164.32 10L164.32 10Q164.28 11.24 164.28 13.20Q164.28 15.16 164.32 15.76L164.32 15.76Q163.72 15.88 163.16 15.88Q162.60 15.88 162.08 15.80L162.08 15.80L161.96 14.40Q159.80 14.32 158.40 14.32Q157.00 14.32 154.84 14.40L154.84 14.40Q154.84 19.64 155.12 23.16L155.12 23.16Q156.52 23.28 159.10 23.28Q161.68 23.28 163.16 23.08L163.16 23.08L163.28 20.36Q163.96 20.24 164.54 20.24Q165.12 20.24 165.52 20.28L165.52 20.28Q165.56 23.40 165.88 26.20L165.88 26.20L165.68 26.40Q163.72 26.20 157.10 26.20Q150.48 26.20 150.12 26.24L150.12 26.24Q150.00 25.64 150.00 25.10Q150.00 24.56 150.08 24L150.08 24L151.48 23.88Q151.84 17.68 151.84 12.66Q151.84 7.64 151.36 2.96L151.36 2.96L150.00 2.84Q149.92 2.32 149.92 1.76Q149.92 1.20 150.04 0.60L150.04 0.60Q151.04 0.64 157.36 0.64Q163.68 0.64 165.48 0.28L165.48 0.28L165.68 0.48Q165.36 4 165.32 6.16L165.32 6.16Q164.92 6.20 164.32 6.20Q163.72 6.20 163.08 6.08L163.08 6.08L162.96 3.36Q160.92 3.24 158.72 3.24Q156.52 3.24 155.08 3.36L155.08 3.36Q154.84 5.88 154.84 11.60L154.84 11.60Q155.48 11.64 157.44 11.64Q159.40 11.64 161.96 11.48L161.96 11.48ZM171.44 18.40Q172.68 18.40 173.36 19.16Q174.04 19.92 174.04 21.02Q174.04 22.12 173.68 22.80L173.68 22.80Q175.44 24.24 177.74 24.24Q180.04 24.24 181.20 23.18Q182.36 22.12 182.36 20.28Q182.36 18.44 181.08 17.12Q179.80 15.80 177.98 14.92Q176.16 14.04 174.36 13.06Q172.56 12.08 171.28 10.44Q170 8.80 170 6.56L170 6.56Q170 3.48 172.04 1.74Q174.08 0 177.28 0Q180.48 0 182.82 1.52Q185.16 3.04 185.16 5.62Q185.16 8.20 183.08 8.20L183.08 8.20Q181.84 8.20 181.16 7.44Q180.48 6.68 180.48 5.48Q180.48 4.28 180.96 3.64L180.96 3.64Q179.56 2.36 177.52 2.36Q175.48 2.36 174.46 3.40Q173.44 4.44 173.44 6Q173.44 7.56 174.36 8.66Q175.28 9.76 176.64 10.46Q178 11.16 179.60 12.06Q181.20 12.96 182.56 13.84Q183.92 14.72 184.84 16.22Q185.76 17.72 185.76 19.64L185.76 19.64Q185.76 22.80 183.58 24.80Q181.40 26.80 178 26.80Q174.60 26.80 171.98 25.22Q169.36 23.64 169.36 20.80L169.36 20.80Q169.36 18.40 171.44 18.40L171.44 18.40Z" transform="translate(12 77) scale(1)"></path></svg>